<svg xmlns="http://www.w3.org/2000/svg" height="555" width="840">
  <g font-weight="640" text-anchor="top">
    <path style="line-height:1;font-variant-ligatures:normal;text-align:center"
      d="M837.08 369.312c0-83.808-68.256-151.632-152.064-151.632H338.552c-83.808 0-151.632 67.824-151.632 151.632s67.824 152.064 151.632 152.064h346.464c15.984 0 31.536-2.592 45.792-7.344l36.288 36.288 43.2-43.2-24.624-24.192c31.536-27.648 51.408-68.256 51.408-113.616zm-589.248 0c0-50.112 40.608-90.72 90.72-90.72h346.464c50.544 0 91.152 40.608 91.152 90.72 0 28.512-12.96 54-33.264 70.416l-50.112-49.68-43.2 42.768 27.648 27.648H338.552c-50.112 0-90.72-40.608-90.72-91.152z"
      fill="#3abead" font-size="64" font-family="Brandmark Sans 29" />
  </g>
</svg>