<svg xmlns:dc="http://purl.org/dc/elements/1.1/" xmlns:cc="http://creativecommons.org/ns#" xmlns:rdf="http://www.w3.org/1999/02/22-rdf-syntax-ns#" xmlns:svg="http://www.w3.org/2000/svg" xmlns="http://www.w3.org/2000/svg" xmlns:xlink="http://www.w3.org/1999/xlink" id="svg161832" viewBox="0 0 1024 768" height="768px" width="1024px" version="1.1">
  <metadata id="metadata161838">
    <rdf:rdf>
      <cc:work rdf:about="">
        <dc:format>image/svg+xml</dc:format>
        <dc:type rdf:resource="http://purl.org/dc/dcmitype/StillImage"></dc:type>
      </cc:work>
    </rdf:rdf>
  </metadata>
  <defs id="defs161836"></defs>
  <linearGradient spreadMethod="pad" y2="30%" x2="-10%" y1="120%" x1="30%" id="3d_gradient2-logo-41c5e349-ce9c-4f7e-a86d-6abfc043a8de">
    <stop id="stop161813" stop-opacity="1" stop-color="#ffffff" offset="0%"></stop>
    <stop id="stop161815" stop-opacity="1" stop-color="#000000" offset="100%"></stop>
  </linearGradient>
  <linearGradient gradientTransform="rotate(-30)" spreadMethod="pad" y2="30%" x2="-10%" y1="120%" x1="30%" id="3d_gradient3-logo-41c5e349-ce9c-4f7e-a86d-6abfc043a8de">
    <stop id="stop161818" stop-opacity="1" stop-color="#ffffff" offset="0%"></stop>
    <stop id="stop161820" stop-opacity="1" stop-color="#cccccc" offset="50%"></stop>
    <stop id="stop161822" stop-opacity="1" stop-color="#000000" offset="100%"></stop>
  </linearGradient>
  <g id="logo-group">
    <image xlink:href="" id="container" x="272" y="144" width="480" height="480" style="display: none;" transform="translate(0 0)"></image>
    <g id="logo-center" transform="translate(0 0)">
      <image xlink:href="" id="icon_container" x="0" y="0" style="display: none;"></image>
      <g id="slogan" style="font-style:oblique;font-weight:normal;font-size:32px;line-height:1;font-family:'Fira Sans Condensed';font-variant-ligatures:none;text-align:center;text-anchor:middle" transform="translate(0 0)"></g>
      <g id="title" style="font-style:normal;font-weight:normal;font-size:72px;line-height:1;font-family:'Brandmark Sans 21 Italic';font-variant-ligatures:normal;text-align:center;text-anchor:middle" transform="translate(0 0)">
        <path id="path161841" style="font-style:normal;font-weight:normal;font-size:72px;line-height:1;font-family:'Brandmark Sans 21 Italic';font-variant-ligatures:normal;text-align:center;text-anchor:middle" d="m 384.95319,0 h 7.776 l 15.12,11.664 h 19.44 L 412.09719,0 h 7.776 c 6.408,0 13.536,-5.184 15.84,-11.664 l 9.864,-27.072 c 2.376,-6.48 -0.936,-11.664 -7.344,-11.664 h -34.92 c -6.408,0 -13.536,5.184 -15.84,11.664 h 42.624 l -9.864,27.072 h -27.144 l 4.248,-11.592 c 2.304,-6.408 -1.008,-11.664 -7.416,-11.664 h -3.888 l -8.496,23.256 c -2.304,6.48 1.008,11.664 7.416,11.664 z" stroke-width="0" stroke-linejoin="miter" stroke-miterlimit="2" fill="#a8a8a8" stroke="#a8a8a8" transform="translate(0 355.84263999999996) translate(2.5816283000001476 -87.59199999999998) scale(3.73) translate(-376.80486 50.4)"></path>
        <path id="path161843" style="font-style:normal;font-weight:normal;font-size:72px;line-height:1;font-family:'Brandmark Sans 21 Italic';font-variant-ligatures:normal;text-align:center;text-anchor:middle" d="m 451.26631,0 h 34.92 c 6.408,0 13.464,-5.184 15.84,-11.664 l 14.112,-38.736 h -15.48 l -14.112,38.736 h -27.144 l 14.112,-38.736 h -15.48 l -14.112,38.736 c -2.376,6.48 0.936,11.664 7.344,11.664 z" stroke-width="0" stroke-linejoin="miter" stroke-miterlimit="2" fill="#a8a8a8" stroke="#a8a8a8" transform="translate(0 355.84263999999996) translate(250.058139 -87.59199999999998) scale(3.73) translate(-443.15245 50.4)"></path>
        <path id="path161845" style="font-style:normal;font-weight:normal;font-size:72px;line-height:1;font-family:'Brandmark Sans 21 Italic';font-variant-ligatures:normal;text-align:center;text-anchor:middle" d="M 520.65519,-38.736 506.54319,0 h 15.48 l 12.672,-34.92 -6.336,-3.816 h 34.92 l -5.616,15.48 h -19.44 c -2.016,5.616 2.16,11.592 8.136,11.592 h 7.056 L 549.16719,0 h 15.48 l 14.112,-38.736 c 2.376,-6.48 -0.936,-11.664 -7.344,-11.664 h -34.92 c -6.408,0 -13.464,5.184 -15.84,11.664 z" stroke-width="0" stroke-linejoin="miter" stroke-miterlimit="2" fill="#a8a8a8" stroke="#a8a8a8" transform="translate(0 355.84263999999996) translate(486.50559919999984 -87.59199999999998) scale(3.73) translate(-506.54319 50.4)"></path>
        <path id="path161847" style="font-style:normal;font-weight:normal;font-size:72px;line-height:1;font-family:'Brandmark Sans 21 Italic';font-variant-ligatures:normal;text-align:center;text-anchor:middle" d="m 607.32744,-50.4 h -15.552 L 573.48744,0 h 15.48 l 11.664,-32.04 15.48,32.04 h 15.48 l 18.36,-50.4 h -15.48 l -11.664,32.04 z" stroke-width="0" stroke-linejoin="miter" stroke-miterlimit="2" fill="#a8a8a8" stroke="#a8a8a8" transform="translate(0 355.84263999999996) translate(736.2076516999999 -87.59199999999998) scale(3.73) translate(-573.48744 50.4)"></path>
      </g>
      <image xlink:href="" id="icon" x="0" y="0" style="display: none;"></image>
    </g>
  </g>
</svg>